<?xml version="1.0" standalone="no"?>
<svg viewBox="0 0 200 200" xmlns="http://www.w3.org/2000/svg">
  <path fill="#000000" d="M36.3,-54.5C50.2,-54.9,66.6,-51.4,63.7,-41.7C60.7,-32,38.4,-16,36.5,-1.1C34.6,13.8,53.2,27.6,50.7,28C48.3,28.4,24.8,15.4,12.9,13.3C0.9,11.2,0.5,20.1,-7.4,33C-15.3,45.8,-30.6,62.6,-36.9,61.4C-43.3,60.3,-40.7,41.2,-45.5,27.9C-50.3,14.7,-62.4,7.3,-59,1.9C-55.7,-3.5,-37,-7,-28.4,-13.7C-19.8,-20.3,-21.5,-30.1,-18.4,-35.9C-15.4,-41.7,-7.7,-43.5,1.8,-46.6C11.2,-49.7,22.5,-54,36.3,-54.5Z" transform="translate(100 100)" />
</svg>
